<svg id="Layer_1" data-name="Layer 1" xmlns="http://www.w3.org/2000/svg" viewBox="0 0 432.19 132.24"><defs><style>.cls-1,.cls-2{fill:#fff;}.cls-2{opacity:0.4;}</style></defs><title>logo</title><polygon class="cls-1" points="60.54 81.61 75.42 96.44 75.42 121.19 45.74 121.19 45.74 96.44 60.54 81.61"/><polygon class="cls-2" points="39.58 60.65 24.75 45.76 0 45.76 0 75.45 24.75 75.45 39.58 60.65"/><polygon class="cls-2" points="75.46 75.42 75.42 96.44 92.92 113.94 113.91 92.95 96.42 75.45 75.46 75.42"/><polygon class="cls-2" points="45.7 75.42 45.74 96.44 28.24 113.94 7.25 92.95 24.75 75.45 45.7 75.42"/><polygon class="cls-2" points="45.76 45.7 24.75 45.74 7.25 28.24 28.24 7.25 45.74 24.75 45.76 45.7"/><polygon class="cls-2" points="81.58 60.63 96.42 45.74 121.16 45.74 121.16 75.42 96.42 75.42 81.58 60.63"/><polygon class="cls-2" points="75.4 45.7 96.42 45.74 113.92 28.24 92.93 7.25 75.43 24.75 75.4 45.7"/><polygon class="cls-2" points="60.54 39.58 75.43 24.75 75.43 0 45.74 0 45.74 24.75 60.54 39.58"/><path class="cls-1" d="M168.92,35.85q6.82,0,10.56,3.33t3.74,9.25q0,6-3.74,9.42t-10.56,3.38h-9.81V75.42h-8.26V35.85ZM167.75,54q3.82,0,5.4-1.41a5.11,5.11,0,0,0,1.58-4,5.1,5.1,0,0,0-1.58-4q-1.58-1.38-5.4-1.39h-8.65V54Z"/><path class="cls-1" d="M198.42,46.21a16.59,16.59,0,0,1,6.12,1.08,13.1,13.1,0,0,1,4.66,3,13.36,13.36,0,0,1,2.94,4.74,18.63,18.63,0,0,1,0,12.19A13.35,13.35,0,0,1,209.2,72a13.09,13.09,0,0,1-4.66,3,16.59,16.59,0,0,1-6.12,1.08,16.36,16.36,0,0,1-6.1-1.08,13.13,13.13,0,0,1-4.63-3,13.66,13.66,0,0,1-3-4.74,18.17,18.17,0,0,1,0-12.19,13.67,13.67,0,0,1,3-4.74,13.15,13.15,0,0,1,4.63-3A16.36,16.36,0,0,1,198.42,46.21Zm0,23.44a6.77,6.77,0,0,0,3.16-.69,6,6,0,0,0,2.16-1.85A8.29,8.29,0,0,0,205,64.41a12.5,12.5,0,0,0,.42-3.26,12.19,12.19,0,0,0-.42-3.23,8.32,8.32,0,0,0-1.25-2.68,6,6,0,0,0-2.16-1.85,6.77,6.77,0,0,0-3.16-.69,6.6,6.6,0,0,0-3.13.69,6.36,6.36,0,0,0-2.16,1.85,8,8,0,0,0-1.27,2.68,12.19,12.19,0,0,0-.42,3.23,12.5,12.5,0,0,0,.42,3.26,8,8,0,0,0,1.27,2.71A6.35,6.35,0,0,0,195.29,69,6.6,6.6,0,0,0,198.42,69.65Z"/><path class="cls-1" d="M233.81,55.33a2.23,2.23,0,0,0-1.3-2.08,7.68,7.68,0,0,0-3.57-.69q-4.66,0-5.32,3.1h-7.09a9.81,9.81,0,0,1,1.27-4.16,9.14,9.14,0,0,1,2.77-2.94,12.63,12.63,0,0,1,4-1.75,19.85,19.85,0,0,1,4.93-.58,18.6,18.6,0,0,1,5.07.64,11.9,11.9,0,0,1,3.77,1.75,8,8,0,0,1,2.36,2.63,6.66,6.66,0,0,1,.83,3.24,6.45,6.45,0,0,1-.91,3.77,5.15,5.15,0,0,1-2,1.77v1.11a5.49,5.49,0,0,1,2.66,1.91,6.48,6.48,0,0,1,1.11,4.07,7.35,7.35,0,0,1-.91,3.6,8.85,8.85,0,0,1-2.58,2.88,12.42,12.42,0,0,1-4,1.89,19.8,19.8,0,0,1-5.32.66q-6.71,0-10.09-2.58a9.85,9.85,0,0,1-3.88-7.06h7.15A3.76,3.76,0,0,0,225,69.16a11.21,11.21,0,0,0,4.1.69,9.27,9.27,0,0,0,4-.72,2.42,2.42,0,0,0,1.5-2.33,2.34,2.34,0,0,0-1.08-2.16A7,7,0,0,0,230,64h-4.66V58h4.38Q233.81,58,233.81,55.33Z"/><path class="cls-1" d="M273.82,62.16H253.42a9,9,0,0,0,1.88,5.61,6.31,6.31,0,0,0,5,2,6.8,6.8,0,0,0,3.49-.76,4.28,4.28,0,0,0,1.83-2.18h7.87a11.32,11.32,0,0,1-4.18,6.84q-3.3,2.58-9.12,2.58a16.15,16.15,0,0,1-6.07-1.08,12.9,12.9,0,0,1-4.57-3,13.22,13.22,0,0,1-2.88-4.74,19.64,19.64,0,0,1,0-12.36,12.69,12.69,0,0,1,2.88-4.68,13.06,13.06,0,0,1,4.52-3,16,16,0,0,1,6-1.05,15.35,15.35,0,0,1,5.76,1,12.3,12.3,0,0,1,4.29,2.83,12.45,12.45,0,0,1,2.69,4.27,15.88,15.88,0,0,1,1,5.4Zm-13.8-10a6.13,6.13,0,0,0-4.27,1.36A7,7,0,0,0,253.7,57h12.19a5.91,5.91,0,0,0-1.77-3.52A5.75,5.75,0,0,0,260,52.13Z"/><path class="cls-1" d="M299,75.51V64.15H287.17V75.51h-7.76V47h7.76V57.67H299V47h7.76V75.51Z"/><path class="cls-1" d="M311.28,47h26.43v6.48H328.4v22h-7.76v-22h-9.37Z"/><path class="cls-1" d="M359.12,73.07H358a9.18,9.18,0,0,1-3.21,2.3,11.76,11.76,0,0,1-4.77.86,12,12,0,0,1-4.41-.75,9.74,9.74,0,0,1-3.24-2,8.44,8.44,0,0,1-2-3,9.89,9.89,0,0,1-.69-3.69,9.45,9.45,0,0,1,.64-3.35,8.53,8.53,0,0,1,2-3,10.18,10.18,0,0,1,3.57-2.22,14.93,14.93,0,0,1,5.38-.86h7.59v-.72q0-4.43-5-4.43a6.19,6.19,0,0,0-3.49.8A3,3,0,0,0,349,55.17h-7.7a7.67,7.67,0,0,1,1-3.69,9,9,0,0,1,2.55-2.8,11.83,11.83,0,0,1,3.8-1.77,17.82,17.82,0,0,1,4.79-.61,21.24,21.24,0,0,1,5.26.61,11.39,11.39,0,0,1,4.07,1.88,8.6,8.6,0,0,1,2.63,3.3,11.56,11.56,0,0,1,.94,4.9V75.51h-7.2Zm-6.65-3a6.46,6.46,0,0,0,4.6-1.66,5.65,5.65,0,0,0,1.77-4.32V62.43h-6.1a7.15,7.15,0,0,0-3.91.91,3.1,3.1,0,0,0-1.41,2.8,3.44,3.44,0,0,0,1.33,2.94A6.08,6.08,0,0,0,352.47,70.08Z"/><path class="cls-1" d="M369.57,68.14h1a6,6,0,0,0,2.33-.42,3.47,3.47,0,0,0,1.63-1.47,8.15,8.15,0,0,0,.94-2.81,26.52,26.52,0,0,0,.31-4.42V47H400.1V75.51h-7.76v-22h-9.42v5.76a33.25,33.25,0,0,1-.75,7.65,12.74,12.74,0,0,1-2.27,5,8.47,8.47,0,0,1-3.85,2.74,16.3,16.3,0,0,1-5.49.83h-1Z"/><path class="cls-1" d="M413.79,55.34h7q5.54,0,8.48,2.63a9.35,9.35,0,0,1,2.94,7.34,9.71,9.71,0,0,1-2.94,7.45q-2.94,2.74-8.48,2.74H406V47h7.76ZM419.66,69q2.77,0,3.77-1a4.35,4.35,0,0,0,0-5.54q-1-1-3.77-1h-5.87V69Z"/><path class="cls-1" d="M159.11,89v32.2h-8.26V81.59h28.54V89Z"/><path class="cls-1" d="M195.79,121.88a9.92,9.92,0,0,1-4.66-.94,8.44,8.44,0,0,1-2.88-2.44h-1.11v13.74h-7.76V92.67h7.54v2.66H188a9.61,9.61,0,0,1,3-2.41,10.14,10.14,0,0,1,4.79-1,11.86,11.86,0,0,1,5.26,1.14,11.7,11.7,0,0,1,4,3.13,14,14,0,0,1,2.49,4.74,19.85,19.85,0,0,1,.86,6,19.49,19.49,0,0,1-.89,6,14.67,14.67,0,0,1-2.49,4.74,11.09,11.09,0,0,1-4,3.1A12.15,12.15,0,0,1,195.79,121.88Zm-2-23.44a6.6,6.6,0,0,0-3.13.69,6,6,0,0,0-2.13,1.88,8.63,8.63,0,0,0-1.25,2.73,12.55,12.55,0,0,0,0,6.41,8.3,8.3,0,0,0,1.25,2.71,6.09,6.09,0,0,0,2.13,1.85,7.33,7.33,0,0,0,6.15,0,5.93,5.93,0,0,0,2.13-1.79,8,8,0,0,0,1.25-2.68,13.44,13.44,0,0,0,0-6.63,8.3,8.3,0,0,0-1.25-2.71,5.83,5.83,0,0,0-2.13-1.82A6.58,6.58,0,0,0,193.8,98.44Z"/><path class="cls-1" d="M215.39,132.24l6-14L209.35,92.67h8.09l7.09,15.18H226l6.54-15.18h7.81l-17.18,39.57Z"/><path class="cls-1" d="M262.41,121.16v-22H250.78v22H243V92.67h27.15v28.48Z"/><path class="cls-1" d="M295.45,121.16v-22H283.81v22h-7.76V92.67h27.15v28.48Z"/></svg>